<?xml version="1.0" encoding="utf-8"?>
<!-- Generator: Adobe Illustrator 24.1.1, SVG Export Plug-In . SVG Version: 6.00 Build 0)  -->
<svg version="1.1" id="Layer_1" xmlns="http://www.w3.org/2000/svg" xmlns:xlink="http://www.w3.org/1999/xlink" x="0px" y="0px"
	 viewBox="0 0 617.5 94.2" style="enable-background:new 0 0 617.5 94.2;" xml:space="preserve">
<style type="text/css">
	.st0{fill:#FFFFFF;}
	.st1{fill:url(#SVGID_1_);}
	.st2{fill:url(#SVGID_2_);}
	.st3{fill:url(#SVGID_3_);}
	.st4{fill:url(#SVGID_4_);}
	.st5{fill:url(#SVGID_5_);}
	.st6{fill:url(#SVGID_6_);}
	.st7{fill:url(#SVGID_7_);}
	.st8{fill:#61C0E2;}
	.st9{fill:url(#SVGID_8_);}
	.st10{fill:url(#SVGID_9_);}
	.st11{fill:url(#SVGID_10_);}
	.st12{fill:url(#SVGID_11_);}
	.st13{fill:url(#SVGID_12_);}
	.st14{fill:url(#SVGID_13_);}
</style>
<g>
	<polygon class="st0" points="0,30.3 14.4,30.3 14.4,68.2 18,68.2 18,30.3 32.3,30.3 32.3,26.7 0,26.7 	"/>
	<path class="st0" d="M51,28.5v37.9c0,1,0.8,1.8,1.8,1.8h28.2v-3.6H54.5V49.2h19.3v-3.6H54.5V30.3h26.4v-3.6H52.8
		C51.7,26.7,51,27.5,51,28.5z"/>
	<path class="st0" d="M124.7,48.6c4.9-1.6,8.4-5.8,8.4-10.5c0-6.2-5.7-11.3-12.6-11.3l-16.6,0.1c-1,0-1.8,0.8-1.8,1.8l0,18.8
		l-0.1,1.7l0.1,0l0,17.3v1.8h3.6V49.2h14.4c3.4,2.3,5.8,5,9.7,17.7l0.5,1.3h3.6l-0.7-2.3C129.9,55.7,127.5,51.4,124.7,48.6z
		 M114.5,45.7l-9,0V30.3h14.9c5,0,9.1,3.5,9.1,7.7c0,4.2-4,7.6-9,7.6L114.5,45.7L114.5,45.7z"/>
	<path class="st0" d="M176.9,48.6c4.9-1.6,8.4-5.8,8.4-10.5c0-6.2-5.7-11.3-12.6-11.3l-16.6,0.1c-1,0-1.8,0.8-1.8,1.8l0,18.8
		l-0.1,1.7l0.1,0l0,17.3v1.8h3.6V49.2H172c3.4,2.3,5.8,5,9.7,17.7l0.5,1.3h3.6l-0.7-2.3C182,55.7,179.7,51.4,176.9,48.6z
		 M166.7,45.7l-9.1,0V30.3h14.9c5,0,9.1,3.5,9.1,7.7c0,4.2-4,7.6-9,7.6L166.7,45.7L166.7,45.7z"/>
	<path class="st0" d="M238.3,65.7l-16.6-37.9c-0.3-0.6-0.9-1-1.6-1c-0.7,0-1.4,0.4-1.6,1l-16.7,37.9l-1.1,2.5h4l0.4-1.1l15-34.1
		l15,34.1l0.4,1.1h4L238.3,65.7z"/>
	<path class="st0" d="M384.7,27.9l-15,34.1l-15.1-34.1l-0.4-1.1h-4l1.1,2.5l16.7,37.9c0.3,0.6,0.9,1,1.6,1c0.7,0,1.4-0.4,1.6-1
		l16.6-37.9l1.1-2.5h-4L384.7,27.9z"/>
	<rect x="407.4" y="26.7" class="st0" width="3.6" height="41.4"/>
	<path class="st0" d="M457.6,48.6c4.9-1.6,8.4-5.8,8.4-10.5c0-6.2-5.7-11.3-12.6-11.3l-16.6,0.1c-1,0-1.8,0.8-1.8,1.8l0,18.8
		l-0.1,1.7l0.1,0l0,17.3v1.8h3.6V49.2h14.4c3.4,2.3,5.8,5,9.7,17.7l0.5,1.3h3.6l-0.7-2.3C462.7,55.7,460.4,51.4,457.6,48.6z
		 M447.4,45.7l-9,0V30.3h14.9c5,0,9.1,3.5,9.1,7.7c0,4.2-4,7.6-9,7.6L447.4,45.7L447.4,45.7z"/>
	<polygon class="st0" points="482.4,30.3 496.8,30.3 496.8,68.2 500.3,68.2 500.3,30.3 514.6,30.3 514.6,26.7 482.4,26.7 	"/>
	<path class="st0" d="M558.6,54.6c0,5.5-5.1,10-11.4,10c-6.3,0-11.4-4.5-11.4-10l0.1-25.9l0.2-1.8h-3.8v27.8c0,7.5,6.7,13.6,15,13.6
		c8.3,0,15-6.1,15-13.6l0.1-25.9l0.2-1.8h-3.8V54.6z"/>
	<path class="st0" d="M616.4,65.7l-16.6-37.9c-0.3-0.6-0.9-1-1.6-1c-0.7,0-1.4,0.4-1.6,1l-16.7,37.9l-1.1,2.5h4l0.4-1.1l15-34.1
		l15,34.1l0.4,1.1h4L616.4,65.7z"/>
	<linearGradient id="SVGID_1_" gradientUnits="userSpaceOnUse" x1="338.3736" y1="37.5339" x2="338.434" y2="37.5339">
		<stop  offset="4.259992e-02" style="stop-color:#626262"/>
		<stop  offset="1" style="stop-color:#939393"/>
	</linearGradient>
	<path class="st1" d="M338.4,37.5C338.4,37.6,338.4,37.6,338.4,37.5C338.4,37.6,338.4,37.6,338.4,37.5
		C338.4,37.6,338.4,37.6,338.4,37.5C338.4,37.5,338.4,37.5,338.4,37.5C338.4,37.5,338.4,37.5,338.4,37.5z"/>
	<linearGradient id="SVGID_2_" gradientUnits="userSpaceOnUse" x1="338.4316" y1="37.551" x2="338.3785" y2="37.5556">
		<stop  offset="0.2478" style="stop-color:#6F6F6F"/>
		<stop  offset="0.2648" style="stop-color:#6E6E6E"/>
		<stop  offset="0.5652" style="stop-color:#656565"/>
		<stop  offset="1" style="stop-color:#626262"/>
	</linearGradient>
	<path class="st2" d="M338.4,37.5L338.4,37.5C338.4,37.6,338.4,37.6,338.4,37.5C338.4,37.6,338.4,37.6,338.4,37.5
		C338.4,37.6,338.4,37.6,338.4,37.5C338.4,37.6,338.4,37.6,338.4,37.5C338.4,37.5,338.4,37.5,338.4,37.5
		C338.4,37.5,338.4,37.5,338.4,37.5z"/>
	<linearGradient id="SVGID_3_" gradientUnits="userSpaceOnUse" x1="338.3852" y1="37.5542" x2="338.4424" y2="37.5542">
		<stop  offset="0.1465" style="stop-color:#565656"/>
		<stop  offset="0.5304" style="stop-color:#5E5E5E"/>
	</linearGradient>
	<path class="st3" d="M338.4,37.6C338.4,37.6,338.4,37.6,338.4,37.6C338.4,37.6,338.4,37.6,338.4,37.6
		C338.4,37.6,338.4,37.6,338.4,37.6C338.4,37.6,338.4,37.6,338.4,37.6C338.4,37.6,338.4,37.6,338.4,37.6c0-0.1-0.1-0.1-0.1-0.1
		C338.4,37.5,338.4,37.5,338.4,37.6C338.4,37.6,338.4,37.6,338.4,37.6z"/>
	<g>
		<linearGradient id="SVGID_4_" gradientUnits="userSpaceOnUse" x1="291.9036" y1="87.1397" x2="292.2427" y2="87.1397">
			<stop  offset="0" style="stop-color:#804C88"/>
			<stop  offset="0.2619" style="stop-color:#6C5F8B"/>
			<stop  offset="0.658" style="stop-color:#51788F"/>
			<stop  offset="0.8911" style="stop-color:#61C1E3"/>
		</linearGradient>
		<path class="st4" d="M291.9,87.1c0.1,0,0.2,0,0.3,0c0,0-0.1,0-0.1,0C292.1,87.1,292,87.1,291.9,87.1z"/>
		<linearGradient id="SVGID_5_" gradientUnits="userSpaceOnUse" x1="294.2747" y1="12.2567" x2="325.617" y2="12.2567">
			<stop  offset="0.211" style="stop-color:#61BFE1"/>
			<stop  offset="0.9997" style="stop-color:#736C94"/>
		</linearGradient>
		<path class="st5" d="M325.6,13.9c-2.3,1.3-10.7,1.7-11.3,1.9c-0.8,0.2-15.9,0.2-16.2,0c-0.2-0.1-2.4-1.6-3.4-2.3
			c-0.3-0.2-0.4-0.3-0.4-0.3s1.5-0.4,3.7-1h0c5.6-1.4,15.9-4,17.8-3.7c1.2,0.2,2.9,0.5,4.6,1.1c0,0,0,0,0,0h0c0.7,0.5,1.4,1,2.1,1.5
			c0.9,0.7,1.7,1.4,2.5,2.1C325.2,13.5,325.4,13.7,325.6,13.9z"/>
		<linearGradient id="SVGID_6_" gradientUnits="userSpaceOnUse" x1="228.4912" y1="37.9337" x2="339.9602" y2="37.9337">
			<stop  offset="0.3795" style="stop-color:#078B7B"/>
			<stop  offset="0.9091" style="stop-color:#4DB0B7"/>
		</linearGradient>
		<path class="st6" d="M250.1,36.2c13.3-2.6,26.6-5.8,40-8.1c13.5-2.3,29.1-5.2,43.3-3.7c0.2,0,0.4,0,0.6,0.1c0.3,0.6,0.7,1.2,1,1.8
			c2.3,4.4,3.9,9.1,4.6,14.2c0.1,0.8,0.2,1.7,0.3,2.5c-0.5,0.6-1.1,1.2-1.6,1.8c-2.1-0.1-4.1-0.1-6.2,0c-0.2,0-0.5,0-0.7,0.1
			c-2.1-5-13.4-3.7-18.3-2.9c-5.9,0.8-11.8,1.8-17.7,2.9c-0.5,0.1-1.1,0.2-1.6,0.3c0,0,0,0,0,0c-3,0.5-6.1,1.1-9.1,1.6
			c-12.9,2.2-22.5,4.2-30.3,5.3c-0.1-0.5-0.3-0.9-0.4-1.4c-0.2-0.7-0.4-1.5-0.7-2.2c-0.3-0.8-0.5-1.6-0.8-2.4
			c-0.6-1.6-1.1-3.3-1.6-4.9c-0.4-1.2-0.7-2.4-0.9-3.6"/>
		<linearGradient id="SVGID_7_" gradientUnits="userSpaceOnUse" x1="258.5103" y1="11.2692" x2="322.4158" y2="11.2692">
			<stop  offset="0" style="stop-color:#F1E931"/>
			<stop  offset="0.1119" style="stop-color:#ECE735"/>
			<stop  offset="0.2515" style="stop-color:#DCE242"/>
			<stop  offset="0.4059" style="stop-color:#C3D957"/>
			<stop  offset="0.571" style="stop-color:#9FCD74"/>
			<stop  offset="0.7427" style="stop-color:#72BD99"/>
			<stop  offset="0.8663" style="stop-color:#4DB0B7"/>
		</linearGradient>
		<path class="st7" d="M322.4,11.2c-7.6-1.8-15.9-0.5-23.7,1.4h0c-1.3,0.3-2.7,0.7-4,1c-1.6,0.4-3.2,0.8-4.7,1.3
			c-5.2,1.4-10.4,3-15.6,4.3c-3.2,0.8-6.8,2.1-10.2,1.7c-1.9-0.2-4.3-0.7-5.7-1.7c5-6.4,11.7-11.4,19.5-14.4
			c5.1-2,10.7-3.1,16.5-3.1c9.6,0,18.5,3,25.9,8c0,0,0,0,0,0h0C321.1,10.2,321.7,10.7,322.4,11.2z"/>
		<path class="st8" d="M330.8,75.1c-1.5,2-3.1,3.8-4.9,5.5l0,0c-1.8,1.7-3.7,3.2-5.7,4.6c-4.2,2.9-8.9,5-13.9,6.4h0
			c-0.6,0.2-1.2,0.3-1.8,0.4c-3.2,0.7-6.6,1.1-10.1,1.1c-4.6,0-9-0.7-13.2-1.9h0c0,0,0,0,0,0c0,0,0,0,0,0c-0.9-0.3-1.8-0.6-2.6-0.9
			c-3.4-1.3-6.6-2.9-9.6-4.9h0c-1.1-0.8-2.2-1.6-3.3-2.4c0.2,0.1,0.4,0.1,0.6,0.2c7.7,1.9,16.1,0.6,24.1-1.3h0c3-0.7,6-1.6,8.8-2.3
			c5.2-1.4,10.4-3.1,15.7-4.5c3.2-0.9,6.9-2.1,10.2-1.7c0.8,0.1,1.6,0.2,2.5,0.4C328.8,74.1,330,74.5,330.8,75.1z"/>
		<linearGradient id="SVGID_8_" gradientUnits="userSpaceOnUse" x1="249.2226" y1="44.0912" x2="341.8335" y2="43.4297">
			<stop  offset="0" style="stop-color:#61BFE1"/>
			<stop  offset="9.313880e-02" style="stop-color:#63B4D7"/>
			<stop  offset="0.2566" style="stop-color:#6A97BC"/>
			<stop  offset="0.4519" style="stop-color:#736C94"/>
		</linearGradient>
		<path class="st9" d="M295,44.8c-0.4,0.1-0.8,0.3-1.2,0.4c0,0,0,0,0,0c-0.1,0-0.2,0-0.2,0.1c-7.6,2.4-15.3,4.6-23.1,6.2
			c-5.3,1.1-10.8,2.3-16.2,0.8c-1.9-0.5-3.8-1.4-5.5-2.7c0-0.7-0.1-1.5-0.1-2.2c0-3.4,0.4-6.8,1.1-10c0.1-0.4,0.2-0.8,0.3-1.2
			c0.6-0.2,1.1-0.3,1.7-0.5c8-1.7,16.7,0.4,24.3,2.9C282.3,40.6,288.6,42.8,295,44.8z"/>
		<linearGradient id="SVGID_9_" gradientUnits="userSpaceOnUse" x1="336.9657" y1="44.2818" x2="282.0251" y2="49.0656">
			<stop  offset="0" style="stop-color:#804C88"/>
			<stop  offset="0.2619" style="stop-color:#6C5F8B"/>
			<stop  offset="0.658" style="stop-color:#51788F"/>
			<stop  offset="0.8911" style="stop-color:#61C1E3"/>
		</linearGradient>
		<path class="st10" d="M340,42.9c0.1,1.5,0.2,2.9,0.2,4.4c0,1.9-0.1,3.7-0.3,5.5c-1.1,0.2-2.3,0.2-3.5,0.1c-14-0.9-27.6-4.1-41-8.1
			c-0.1,0-0.3-0.1-0.4-0.1c0.4-0.1,0.7-0.2,1.1-0.4c9.3-3.2,18.6-7.1,28.4-7.9c4.3-0.4,9.1-0.2,13,2.1c0.6,0.4,1.5,1,2.2,1.8
			C339.8,41.3,339.9,42.1,340,42.9z"/>
		<linearGradient id="SVGID_10_" gradientUnits="userSpaceOnUse" x1="254.0774" y1="67.9559" x2="338.7747" y2="67.9559">
			<stop  offset="0" style="stop-color:#F1E931"/>
			<stop  offset="0.1373" style="stop-color:#EDE834"/>
			<stop  offset="0.2777" style="stop-color:#E1E33E"/>
			<stop  offset="0.4194" style="stop-color:#CCDC4F"/>
			<stop  offset="0.5622" style="stop-color:#AFD267"/>
			<stop  offset="0.7058" style="stop-color:#8AC585"/>
			<stop  offset="0.8481" style="stop-color:#5EB6A9"/>
			<stop  offset="0.8963" style="stop-color:#4DB0B7"/>
		</linearGradient>
		<path class="st11" d="M338.8,58.7c-1.5,6.1-4.3,11.6-8,16.4c-1.5,2-3.1,3.8-4.9,5.5c0.7-1.1,1.2-2.1,1.6-3.1
			c0.3-0.9,0.6-1.8,0.4-2.7c-0.1-0.4-0.2-0.7-0.3-1c-1.9-4.3-9.6-3.1-13-2.4c-6.9,1.4-13.7,3.1-20.5,4.7c-13.7,3.3-22.3,6-29.1,6.3
			c-4.4-3.7-8.1-8.3-10.9-13.5c2.8-0.4,6.2-1,10.2-2.1c11.3-2.9,22.4-6.5,33.7-9.2c10.5-2.5,22.8-5.7,33.6-3.2
			C334.6,55.1,337,56.6,338.8,58.7z"/>
		<linearGradient id="SVGID_11_" gradientUnits="userSpaceOnUse" x1="278.6184" y1="87.9613" x2="320.1668" y2="87.9613">
			<stop  offset="0.2004" style="stop-color:#F1E931"/>
			<stop  offset="0.9285" style="stop-color:#4DB0B7"/>
		</linearGradient>
		<path class="st12" d="M320.2,85.2c-4.2,2.9-8.9,5-13.9,6.4h0c-0.6,0.2-1.2,0.3-1.8,0.4l-23.2-0.8h0c0,0,0,0,0,0c0,0,0,0,0,0
			c-0.9-0.3-1.8-0.6-2.6-0.9c4-0.4,8.9-1.1,14.4-2.3c1.5-0.3,3.1-0.7,4.8-1.2C310,83.6,317,83,320.2,85.2z"/>
		<linearGradient id="SVGID_12_" gradientUnits="userSpaceOnUse" x1="269.0473" y1="89.1195" x2="306.2522" y2="89.1195">
			<stop  offset="0" style="stop-color:#804C88"/>
			<stop  offset="0.2619" style="stop-color:#6C5F8B"/>
			<stop  offset="0.658" style="stop-color:#51788F"/>
			<stop  offset="0.8911" style="stop-color:#61C1E3"/>
		</linearGradient>
		<path class="st13" d="M306.3,91.6c-0.6,0.2-1.2,0.3-1.8,0.4c-3.2,0.7-6.6,1.1-10.1,1.1c-4.6,0-9-0.7-13.2-1.9h0c0,0,0,0,0,0
			c0,0,0,0,0,0c-0.9-0.3-1.8-0.6-2.6-0.9c-3.4-1.3-6.6-2.9-9.6-4.9c4-0.7,11.2-0.5,24,2.6C296.9,88.9,301.3,90.1,306.3,91.6z"/>
		<linearGradient id="SVGID_13_" gradientUnits="userSpaceOnUse" x1="293.7715" y1="3.5703" x2="293.7715" y2="35.4681">
			<stop  offset="0.1684" style="stop-color:#44518C"/>
			<stop  offset="0.9831" style="stop-color:#008181"/>
		</linearGradient>
		<path class="st14" d="M334,24.5c0.3,0.6,0.7,1.2,1,1.8c-0.5-0.7-1.1-1.3-1.6-1.9c-13.6-14-40.4-4.5-45.1-3.4
			c-5.1,1.2-24.4,7.2-35.8,8c1.6-3.6,3.6-6.9,6-10c5-6.4,11.7-11.4,19.5-14.4c5.2,1.7,10.3,3.8,15,5.8c1.6,0.7,3.3,1.3,4.9,1.8h0
			c0.3,0.1,0.5,0.2,0.8,0.2h0c4.8,1.5,9.8,2.4,15,2.4c3.3,0,8.1,0.1,11.3-1.6c0.2,0.2,0.4,0.4,0.7,0.6C328.9,17,331.8,20.6,334,24.5
			z"/>
	</g>
</g>
</svg>
